:SAMPLES-PER-SECOND 30
:FULLY-SPECIFIED
:DEGREES
367
root  49.2395 37.7349 -0.317193 3.32216 -21.9612 4.53023
RightUpLeg  -11.6222 -19.8409 -9.82859
RightLeg  30.8667 -3.66239 -2.59983
RightFoot  -19.9664 0.297398 5.72859
RightToes  -2.32831e-009 0 -3.6325e-017
Spine  29.7003 3.46571 12.4163
Spine1  14.5987 11.7004 -14.1525
HEad  -27.6638 -17.7901 -5.00292
LeftShoulder1  -0.0842472 3.74772 -28.4207
LeftArm  -6.4967 3.5139 -35.4757
LeftForeArm  46.048 -0.15783 -7.34602
LeftHand  -0.452792 11.2558 -7.41751
RightShoulder  0.159691 -2.88628 20.5504
RightArm  -20.4174 33.664 49.8338
RightForeArm  -1.97496 -2.01659 -6.81529
RightHand  -0.612719 8.23653 -5.65148
LeftUpLeg  -27.4611 -6.77438 1.61128
LeftLeg  16.2692 -21.9815 -6.18639
LeftFoot  5.72198 0.485007 -3.46225
LeftToes  8.91272e-011 -1.70619e-011 7.36378e-012
368
root  49.0192 37.7832 -0.731955 3.37109 -23.3286 4.30498
RightUpLeg  -12.4785 -18.5753 -8.68232
RightLeg  30.8145 -3.64626 -2.58563
RightFoot  -19.6671 0.245845 5.20599
RightToes  -2.32831e-009 0 -3.6325e-017
Spine  29.5713 3.98067 12.7672
Spine1  14.2101 12.1261 -13.884
HEad  -27.4016 -16.3124 -4.61545
LeftShoulder1  -0.0622625 3.6842 -28.3654
LeftArm  -5.88925 6.4882 -34.1117
LeftForeArm  50.4006 -1.89834 -7.69844
LeftHand  -0.471673 10.6236 -8.73082
RightShoulder  -0.053163 -3.66606 21.5774
RightArm  -25.5609 29.321 38.2135
RightForeArm  -22.5848 -1.99118 -6.75351
RightHand  -0.517317 11.0298 -4.01482
LeftUpLeg  -26.9353 -6.49091 2.59185
LeftLeg  14.503 -21.2039 -4.83995
LeftFoot  6.29082 0.664753 -4.53391
LeftToes  8.91272e-011 -1.70619e-011 7.36378e-012
369
root  48.7717 37.8155 -1.12607 2.76715 -24.6498 4.59203
RightUpLeg  -13.0011 -18.5977 -8.40476
RightLeg  31.3183 -2.50678 -1.88868
RightFoot  -19.3681 0.181766 4.45971
RightToes  -2.32831e-009 0 -3.6325e-017
Spine  29.3739 3.91669 12.0751
Spine1  13.6012 11.9109 -14.2613
HEad  -26.8276 -14.5829 -5.09841
LeftShoulder1  -0.0818547 3.74178 -28.2371
LeftArm  -5.87312 10.6003 -33.0399
LeftForeArm  47.9564 -4.36591 -7.59693
LeftHand  -0.432048 10.7092 -7.78144
RightShoulder  -0.293882 -4.52509 21.5084
RightArm  -23.4327 24.8285 29.4602
RightForeArm  -21.9082 1.94206 -4.62825
RightHand  -0.242181 10.4982 -2.19012
LeftUpLeg  -25.6595 -4.69806 2.3796
LeftLeg  12.6716 -21.8118 -3.55824
LeftFoot  6.86568 0.793186 -5.20822
LeftToes  8.91272e-011 -1.70619e-011 7.36378e-012
370
root  48.4665 37.8771 -1.40968 1.95485 -25.7825 4.92683
RightUpLeg  -12.8148 -18.1913 -8.18304
RightLeg  31.378 -2.01448 -1.56829
RightFoot  -19.1788 0.126271 3.74211
RightToes  -2.32831e-009 0 -3.6325e-017
Spine  28.4427 3.44261 10.9265
Spine1  13.0455 10.895 -14.2174
HEad  -26.0831 -11.9303 -5.48967
LeftShoulder1  -0.134177 3.8921 -28.3723
LeftArm  -6.49123 14.8011 -32.4807
LeftForeArm  40.6497 -6.15971 -6.99774
LeftHand  -0.393921 11.1747 -6.38184
RightShoulder  -0.0305291 -3.59164 19.0142
RightArm  -17.6797 21.002 22.5079
RightForeArm  -11.8367 6.8058 -2.20542
RightHand  -0.27005 11.1172 -2.31557
LeftUpLeg  -23.8299 -2.06428 1.98394
LeftLeg  10.4896 -23.3913 -2.48941
LeftFoot  7.41259 0.953297 -6.04458
LeftToes  8.91272e-011 -1.70619e-011 7.36378e-012
371
root  48.1563 37.9166 -1.64382 0.592026 -26.8002 5.18686
RightUpLeg  -11.6511 -17.1361 -8.00934
RightLeg  31.1344 -2.10438 -1.61252
RightFoot  -19.268 0.0689112 2.8777
RightToes  -2.32831e-009 0 -3.6325e-017
Spine  27.5306 2.74267 10.3282
Spine1  12.6407 9.82769 -14.2417
HEad  -25.4159 -10.4319 -5.08051
LeftShoulder1  -0.192724 4.06127 -28.4265
LeftArm  -7.28297 17.2406 -32.8433
LeftForeArm  33.8628 -6.83387 -6.36657
LeftHand  -0.392384 11.3243 -6.17084
RightShoulder  0.174271 -2.75555 17.1022
RightArm  -16.0068 17.2221 17.227
RightForeArm  -2.97373 13.331 -0.428433
RightHand  -0.371911 11.1731 -3.04064
LeftUpLeg  -21.7192 -0.411446 2.14613
LeftLeg  9.05641 -24.0235 -1.8603
LeftFoot  7.5313 1.09452 -6.85801
LeftToes  8.91272e-011 -1.70619e-011 7.36378e-012
372
root  47.8372 37.9436 -1.86792 -0.834381 -28.678 5.37027
RightUpLeg  -10.6326 -14.1645 -7.49564
RightLeg  31.0125 -3.03009 -2.20719
RightFoot  -19.3479 0.0289227 2.28473
RightToes  -2.32831e-009 0 -3.6325e-017
Spine  26.5202 2.47734 9.88741
Spine1  12.4369 9.29096 -14.2513
HEad  -25.2865 -9.503 -4.09355
LeftShoulder1  -0.20671 4.1103 -27.9063
LeftArm  -8.68765 17.9537 -34.762
LeftForeArm  31.653 -7.24898 -5.71882
LeftHand  -0.336468 10.6395 -5.88274
RightShoulder  0.0853015 -3.11656 16.713
RightArm  -20.7838 15.2652 12.7214
RightForeArm  0.340043 18.9242 2.32285
RightHand  -0.306402 12.3804 -2.442
LeftUpLeg  -19.6899 0.796378 2.90944
LeftLeg  8.34168 -23.3264 -1.48369
LeftFoot  7.31793 1.14932 -7.26068
LeftToes  8.91272e-011 -1.70619e-011 7.36378e-012
373
root  47.5141 37.96 -2.04443 -2.31439 -31.2358 5.51691
RightUpLeg  -9.60524 -12.5174 -7.1129
RightLeg  30.9574 -2.29098 -1.72623
RightFoot  -19.4014 -0.0466964 1.202
RightToes  -2.32831e-009 0 -3.6325e-017
Spine  25.6704 2.39484 9.78546
Spine1  11.8332 9.11143 -14.593
HEad  -24.6686 -8.55835 -3.23396
LeftShoulder1  -0.223612 4.14947 -28.4457
LeftArm  -9.03328 17.0937 -35.757
LeftForeArm  33.0952 -8.37845 -5.69175
LeftHand  -0.32565 10.3516 -6.00493
RightShoulder  -0.108697 -3.94256 16.7922
RightArm  -26.7091 13.7806 10.0265
RightForeArm  1.92493 25.1509 5.44809
RightHand  -0.366054 10.8869 -3.0128
LeftUpLeg  -17.7711 1.42462 3.99257
LeftLeg  8.5292 -21.4296 -1.22138
LeftFoot  6.61903 1.1121 -7.28739
LeftToes  8.91272e-011 -1.70619e-011 7.36378e-012
374
root  47.2017 37.967 -2.14288 -3.53734 -33.9257 5.44379
RightUpLeg  -8.46747 -11.5182 -6.6642
RightLeg  30.6805 -0.933487 -0.84033
RightFoot  -19.521 -0.107529 0.342932
RightToes  -2.32831e-009 0 -3.6325e-017
Spine  24.3937 2.16861 10.1119
Spine1  11.2263 8.85186 -15.0447
HEad  -23.9673 -7.85301 -2.42347
LeftShoulder1  -0.25331 4.22652 -28.8784
LeftArm  -7.28996 15.7346 -36.5744
LeftForeArm  34.6338 -10.2897 -6.31861
LeftHand  -0.285222 10.5135 -4.9253
RightShoulder  -0.175497 -4.20656 17.3032
RightArm  -28.0833 13.0984 8.37996
RightForeArm  3.66037 32.1385 6.8731
RightHand  -0.237558 11.0332 -2.09496
LeftUpLeg  -16.2166 1.30594 5.44918
LeftLeg  9.5353 -18.5434 -1.22812
LeftFoot  5.61972 1.09117 -7.54064
LeftToes  8.91272e-011 -1.70619e-011 7.36378e-012
